<svg height="264" viewBox="0 0 264 264" width="264" xmlns="http://www.w3.org/2000/svg"><g fill="none" fill-rule="evenodd" transform="translate(41.948055 10.067533)"><path d="m110.730605 109.430627c1.239984 5.310624-1.51013 11.04744-1.318847 11.518936.602374 1.486639 22.208978 14.864713 18.195388 24.470817-4.011912 9.609461-14.561009.018457-18.264183 1.91451-3.23839 1.661143 3.96493 22.610001 1.664499 33.370516-.748353 3.508535-1.922899 3.808883-5.161289 2.612525-5.8710494-2.166198-11.4786654-4.241788-16.6382761-6.146229-2.328956-.862452-2.6611846-2.506816-3.1846963-4.798858-1.1527326-5.072358-1.9463897-12.829393-3.6914288-13.475393-1.7517508-.644322-7.396281 4.738453-11.5692735 7.842609-1.8826287 1.401065-3.2065093 2.436343-5.5388212 1.573891-5.1612886-1.90612-10.7672267-3.971642-16.6399543-6.139518-3.235034-1.196358-3.9347276-2.189688-2.223247-5.340826 5.2451848-9.674899 24.3365835-20.913622 22.9539756-24.279534-1.5839585-3.852509-15.8311959-3.414572-12.636432-13.32438 2.0084729-6.228447 12.6699905-7.012037 20.6703235-6.918073-2.7417249-18.2692172-5.7603069-107.79307768-8.8309045-111.12710908-3.5823639-3.88606778-23.5748068 2.7366911-33.6255607 6.25361601-12.4518606 4.36259767-31.65232422 14.30764247-33.8822828 17.39669727-2.08397936 2.8843482-.71143901 7.3509771 2.01854039 10.069211 2.73165732 2.7148781 8.77721101-.8859429 13.68681131 5.5572783 4.9096003 6.4448992 3.946473 132.9551985 2.6964209 138.2758895-1.250052 5.320691-12.76395405 8.161414-14.3328113 12.24212-1.57053517 4.084063-.80372472 6.173076 2.38264952 8.763788 3.18637428 2.59239 142.04282528 7.995299 149.04647228 0 8.213429-9.369517 7.257014-57.030897 8.572505-61.744181 1.327236-4.746841 9.946723-5.668021 12.106209-10.351102 2.161164-4.679725 6.033808-14.760681 1.156088-16.005699-10.936697-2.790385-42.728289-3.881034-67.611875-2.211502z" fill="#ec3645"/><path d="m9.80821626 236.479779c0 2.239463.49765854 3.803533 1.49297574 4.656662 1.0308642.817582 2.3816518 1.244146 4.0523627 1.244146.6042997 0 1.1375053-.035547 1.6351639-.106641v-3.625798l-.853129.035547c-1.4218816 0-1.8484461-.746488-1.8484461-2.488293v-19.195402h-7.2871435v3.376969h2.80821626zm15.21413364-.710941c0 4.585568 1.9906343 6.896126 5.9363559 6.896126 2.0972755 0 3.9457216-.782035 4.9410388-1.777352 1.0308642-.995317 1.5285227-1.741805 1.6707109-2.203917h.0710941l-.035547.853129v.675394c0 1.350788.7820349 2.026181 2.3461047 2.026181h4.4789272v-3.341422h-1.741805c-.5332057 0-.7820349-.248829-.7820349-.782034v-14.005535h-7.2871435v3.376969h2.7726692v4.69221c0 1.741805-.4621115 3.23478-1.3863346 4.550021-.9242231 1.279693-2.1328225 1.91954-3.6257982 1.91954-2.1328225 0-2.8437633-1.279693-2.8437633-3.661345v-10.877395h-7.3226905v3.376969h2.8082162zm25.3094934-2.594934c0 2.808216.7109409 5.118774 2.1683696 6.860579 1.4574286 1.741805 3.3769689 2.630481 5.7586206 2.630481 2.7371222 0 4.3367391-1.244147 5.118774-2.203917.6753938-.746488.7109408-.995317.8175819-1.173052h.0710941l-.1066411.817582v.213282c0 1.137505.7464879 1.91954 2.3105577 1.91954h4.2656449v-3.376969h-1.6351639c-.5332056 0-.7820349-.248829-.7820349-.782035v-21.079395h-7.2871434v3.376969h2.8082162v4.585568c0 .497659.0355471.924223.0710941 1.279694h-.0710941l-.1421881-.284377c-.4621116-.639846-2.0261814-2.27501-5.0832269-2.27501-2.4527459 0-4.4789272.853129-6.00745 2.594934s-2.2750107 4.016815-2.2750107 6.896126zm4.5500213 0c0-3.448063 1.9550873-5.616433 4.6211154-5.616433 1.4218816 0 2.5238399.568753 3.2703278 1.670711.7820349 1.101958 1.1730524 2.452746 1.1730524 4.052363 0 3.661345-1.9906344 5.580885-4.5855684 5.580885-2.6660281 0-4.4789272-2.27501-4.4789272-5.687526zm29.290762-12.157088v-4.016816h-4.5500212v4.016816zm2.5949341 21.221583v-3.376969h-2.5949341v-14.752022h-7.3226905v3.376969h2.8082163v11.375053h-2.6304811v3.376969zm15.9961683 0v-3.376969h-2.594934v-4.407833c0-1.812899.391018-3.341422 1.2086-4.656662.817582-1.315241 1.955087-1.990634 3.448063-1.990634 1.955087 0 2.452745 1.31524 2.452745 3.625798v10.8063h7.109409v-3.376969h-2.630481v-4.621115c0-1.812899.391017-3.305875 1.208599-4.550021.817582-1.244147 1.955087-1.883993 3.412516-1.883993 1.955087 0 2.488293 1.244146 2.488293 3.625798v10.8063h7.144955v-3.376969h-2.630481v-8.28246c0-4.585569-1.955087-6.896126-5.829715-6.896126-2.737122 0-5.260962 1.706258-6.291826 3.945721h-.071094c-.675394-2.630481-2.346105-3.945721-5.04768-3.945721-2.737122 0-5.154321 1.91954-6.185185 4.052362h-.0710941l.0710941-.782034v-.817582c0-1.350788-.7820349-2.026182-2.3816518-2.026182h-4.7277565v3.376969h2.0261814c.5332056 0 .7820349.248829.7820349.746488v10.628565h-2.6304811v3.376969zm30.961473-6.469561c0 4.585568 1.990635 6.896126 5.936356 6.896126 2.097276 0 3.945722-.782035 4.941039-1.777352 1.030864-.995317 1.528523-1.741805 1.670711-2.203917h.071094l-.035547.853129v.675394c0 1.350788.782035 2.026181 2.346105 2.026181h4.478927v-3.341422h-1.741805c-.533206 0-.782035-.248829-.782035-.782034v-14.005535h-7.287144v3.376969h2.77267v4.69221c0 1.741805-.462112 3.23478-1.386335 4.550021-.924223 1.279693-2.132823 1.91954-3.625798 1.91954-2.132823 0-2.843764-1.279693-2.843764-3.661345v-10.877395h-7.32269v3.376969h2.808216zm25.273947 2.52384c0 2.914857 4.052362 4.372286 7.358237 4.372286 2.203917 0 4.016816-.462112 5.474244-1.421882 1.457429-.95977 2.16837-2.346105 2.16837-4.08791 0-1.706258-.639847-2.950404-2.026181-3.803533-1.386335-.888676-2.203917-1.208599-4.016816-1.777352-1.670711-.533206-2.417199-.746488-3.234781-1.457429-.391017-.35547-.568752-.782035-.568752-1.244146 0-1.101958 1.101958-1.635164 2.630481-1.635164 1.599616 0 2.666028.6043 2.666028 1.492976v1.030864h3.874627v-2.310558c0-1.244146-.710941-2.168369-2.097275-2.808216-1.386335-.639847-2.843764-.95977-4.44338-.95977-1.919541 0-3.590252.426564-5.012133 1.279693-1.421882.853129-2.132823 2.16837-2.132823 3.910175 0 1.670711.639847 2.914857 1.883994 3.803533 1.279693.853129 2.168369 1.244147 3.83908 1.812899.391017.142188 1.350788.462112 1.670711.6043s1.030864.426565 1.279693.568753c.782035.391017 1.173053.853129 1.173053 1.635164 0 1.173052-1.244147 1.848446-3.092593 1.848446-1.990634 0-3.554704-.710941-3.554704-1.883993v-1.066412h-3.83908z" fill="#f94848"/></g></svg>