<svg width="90" height="443" viewBox="0 0 90 443" fill="none" xmlns="http://www.w3.org/2000/svg" preserveAspectRatio="none">
<path fill-rule="evenodd" clip-rule="evenodd" d="M90 443L77.1429 424.542C64.2857 406.083 38.5714 369.167 30 332.25C21.4286 295.333 30 258.417 42.8571 221.5C55.7143 184.583 72.8571 147.667 81.4286 110.75C90 73.8333 90 36.9167 90 18.4583V0H0L0 18.4583C0 36.9167 0 73.8333 0 110.75C0 147.667 0 184.583 0 221.5C0 258.417 0 295.333 0 332.25C0 369.167 0 406.083 0 424.542L0 443H90Z" fill="#011E65"/>
</svg>
